<?xml version="1.0" encoding="utf-8"?>
<!-- Generator: Adobe Illustrator 16.0.0, SVG Export Plug-In . SVG Version: 6.00 Build 0)  -->
<!DOCTYPE svg PUBLIC "-//W3C//DTD SVG 1.1//EN" "http://www.w3.org/Graphics/SVG/1.1/DTD/svg11.dtd">
<svg version="1.1" id="Capa_1" xmlns="http://www.w3.org/2000/svg" xmlns:xlink="http://www.w3.org/1999/xlink" x="0px" y="0px"
	 width="26px" height="25.637px" viewBox="0 0 26 25.637" enable-background="new 0 0 26 25.637" xml:space="preserve">
<g>
	
		<linearGradient id="SVGID_1_" gradientUnits="userSpaceOnUse" x1="761.9199" y1="581.5002" x2="787.9199" y2="581.5002" gradientTransform="matrix(1 0 0 1 -761.9199 -568.6836)">
		<stop  offset="0" style="stop-color:#E84F18"/>
		<stop  offset="1" style="stop-color:#EF8640"/>
	</linearGradient>
	<path fill="url(#SVGID_1_)" d="M25.832,13.978l-1.909-3.031c-0.151-0.24-0.202-0.532-0.144-0.81l0.759-3.503
		c0.119-0.545-0.195-1.092-0.728-1.261l-3.414-1.096c-0.269-0.084-0.496-0.274-0.631-0.526L18.097,0.58
		c-0.261-0.496-0.854-0.71-1.369-0.499l-3.319,1.356c-0.265,0.106-0.558,0.106-0.822,0L9.274,0.081
		C8.756-0.13,8.163,0.085,7.904,0.58L6.232,3.751C6.101,4.003,5.875,4.193,5.603,4.277L2.192,5.371
		c-0.533,0.17-0.848,0.717-0.73,1.263l0.759,3.503c0.061,0.278,0.009,0.567-0.142,0.808l-1.912,3.032
		c-0.297,0.473-0.189,1.095,0.253,1.436l2.832,2.19c0.225,0.176,0.374,0.432,0.413,0.717l0.485,3.549
		c0.073,0.554,0.559,0.96,1.117,0.937l3.58-0.137c0.284-0.013,0.562,0.089,0.772,0.28l2.653,2.407c0.414,0.372,1.045,0.372,1.457,0
		l2.654-2.407c0.212-0.191,0.487-0.293,0.771-0.28l3.58,0.137c0.56,0.023,1.044-0.383,1.117-0.937l0.485-3.549
		c0.038-0.285,0.186-0.541,0.41-0.717l2.831-2.19C26.022,15.072,26.131,14.45,25.832,13.978z"/>
	<g>
		<polygon fill="#FFFFFF" points="7.882,13.325 5.277,9.791 4.074,9.791 4.074,15.583 5.322,15.583 5.322,11.942 7.939,15.527 
			7.983,15.583 9.13,15.583 9.13,9.791 7.882,9.791 		"/>
		<polygon fill="#FFFFFF" points="10.019,15.583 14.076,15.583 14.076,14.45 11.27,14.45 11.27,13.203 14.018,13.203 14.018,12.07 
			11.27,12.07 11.27,10.924 14.076,10.924 14.076,9.791 10.019,9.791 		"/>
		<polygon fill="#FFFFFF" points="20.548,9.791 19.592,13.614 18.562,9.791 17.577,9.791 16.552,13.615 15.586,9.791 14.204,9.791 
			15.837,15.481 15.866,15.583 17.113,15.583 18.069,11.932 19.029,15.583 20.28,15.583 21.928,9.791 		"/>
	</g>
</g>
</svg>
